<?xml version="1.0" encoding="UTF-8"?>
<svg id="Layer_1" data-name="Layer 1" xmlns="http://www.w3.org/2000/svg" viewBox="0 0 682.82 682.82">
  <defs>
    <style>
      .cls-1, .cls-2, .cls-3, .cls-4, .cls-5, .cls-6, .cls-7, .cls-8, .cls-9, .cls-10, .cls-11, .cls-12, .cls-13, .cls-14, .cls-15, .cls-16, .cls-17, .cls-18, .cls-19, .cls-20 {
        fill: none;
      }

      .cls-1, .cls-8, .cls-13, .cls-14, .cls-15, .cls-16, .cls-17, .cls-18, .cls-19, .cls-20 {
        stroke: #e25501;
      }

      .cls-2 {
        stroke-width: 42.88px;
      }

      .cls-2, .cls-3, .cls-4, .cls-5, .cls-6, .cls-7, .cls-9, .cls-10, .cls-11, .cls-12 {
        stroke: #ffd393;
      }

      .cls-3 {
        stroke-width: 90.72px;
      }

      .cls-4 {
        stroke-width: 17.38px;
      }

      .cls-5 {
        stroke-width: 32.51px;
      }

      .cls-6 {
        stroke-width: 24.19px;
      }

      .cls-7 {
        stroke-width: 19.49px;
      }

      .cls-8 {
        stroke-width: 2.72px;
      }

      .cls-9 {
        stroke-width: 3.38px;
      }

      .cls-10 {
        stroke-width: 3.01px;
      }

      .cls-11 {
        stroke-width: 5.71px;
      }

      .cls-12 {
        stroke-width: 7.09px;
      }

      .cls-13 {
        stroke-width: 3.58px;
      }

      .cls-14 {
        stroke-width: 4.41px;
      }

      .cls-15 {
        stroke-width: 10.19px;
      }

      .cls-16 {
        stroke-width: 13.74px;
      }

      .cls-17 {
        stroke-width: 7.05px;
      }

      .cls-18 {
        stroke-width: 22.11px;
      }

      .cls-21, .cls-22 {
        isolation: isolate;
      }

      .cls-19 {
        stroke-width: 45.64px;
      }

      .cls-20 {
        stroke-width: 108.35px;
      }

      .cls-22 {
        font-family: Arial-BoldMT, Arial;
        font-size: 10px;
        font-weight: 700;
      }

      .cls-23 {
        fill: #fff;
      }

      .cls-24 {
        font-size: 24px;
      }

      .cls-24, .cls-25, .cls-26 {
        font-family: Georgia, Georgia;
      }

      .cls-25 {
        font-size: 12px;
      }

      .cls-26 {
        font-size: 14px;
      }

      .cls-27 {
        letter-spacing: -.07em;
      }

      .cls-28 {
        letter-spacing: -.02em;
      }

      .cls-29 {
        letter-spacing: -.06em;
      }

      .cls-30 {
        letter-spacing: 0em;
      }
    </style>
  </defs>
  <rect id="background" class="cls-23" width="682.82" height="682.82"/>
  <g id="visualization">
    <g>
      <rect x="601.41" y="104.46" width="5" height=".86"/>
      <rect x="601.41" y="110.32" width="5" height="2.72"/>
      <rect x="601.41" y="118.04" width="5" height="3.01"/>
      <rect x="601.41" y="126.05" width="5" height="3.38"/>
      <rect x="601.41" y="134.43" width="5" height="3.58"/>
      <rect x="601.41" y="143" width="5" height="4.41"/>
      <rect x="601.41" y="152.41" width="5" height="5.71"/>
      <rect x="601.41" y="163.13" width="5" height="7.05"/>
      <rect x="601.41" y="175.18" width="5" height="7.09"/>
      <rect x="601.41" y="187.27" width="5" height="10.19"/>
      <rect x="601.41" y="202.46" width="5" height="13.74"/>
      <rect x="601.41" y="221.2" width="5" height="17.38"/>
      <rect x="601.41" y="243.58" width="5" height="19.49"/>
      <rect x="601.41" y="268.06" width="5" height="22.11"/>
      <rect x="601.41" y="295.18" width="5" height="24.19"/>
      <rect x="601.41" y="324.36" width="5" height="32.51"/>
      <rect x="601.41" y="361.88" width="5" height="42.88"/>
      <rect x="601.41" y="409.76" width="5" height="45.64"/>
      <rect x="601.41" y="460.39" width="5" height="90.72"/>
      <rect x="601.41" y="556.11" width="5" height="108.35"/>
      <rect x="76.41" y="149.46" width="5" height="218.65"/>
      <rect x="76.41" y="373.11" width="5" height="246.35"/>
    </g>
    <path class="cls-3" d="M81.41,574.1c260,0,260-68.35,520-68.35"/>
    <path class="cls-11" d="M81.41,382.35c260,0,260-227.08,520-227.08"/>
    <path class="cls-10" d="M81.41,374.61c260,0,260-255.07,520-255.07"/>
    <path class="cls-6" d="M81.41,441.25c260,0,260-133.98,520-133.98"/>
    <path class="cls-12" d="M81.41,388.75c260,0,260-210.03,520-210.03"/>
    <path class="cls-5" d="M81.41,469.6c260,0,260-128.98,520-128.98"/>
    <path class="cls-7" d="M81.41,419.42c260,0,260-166.1,520-166.1"/>
    <path class="cls-4" d="M81.41,400.98c260,0,260-171.1,520-171.1"/>
    <path class="cls-9" d="M81.41,377.81c260,0,260-250.07,520-250.07"/>
    <path class="cls-2" d="M81.41,507.3c260,0,260-123.98,520-123.98"/>
    <path class="cls-17" d="M81.41,164.55c260,0,260,2.1,520,2.1"/>
    <path class="cls-16" d="M81.41,185.14c260,0,260,24.19,520,24.19"/>
    <path class="cls-8" d="M81.41,151.68c260,0,260-40,520-40"/>
    <path class="cls-15" d="M81.41,173.18c260,0,260,19.19,520,19.19"/>
    <path class="cls-20" d="M81.41,313.93c260,0,260,296.35,520,296.35"/>
    <path class="cls-19" d="M81.41,236.94c260,0,260,195.63,520,195.63"/>
    <path class="cls-18" d="M81.41,203.07c260,0,260,76.06,520,76.06"/>
    <path class="cls-13" d="M81.41,154.82c260,0,260-18.61,520-18.61"/>
    <path class="cls-14" d="M81.41,158.82c260,0,260-13.61,520-13.61"/>
    <path class="cls-1" d="M81.41,149.89c260,0,260-45,520-45"/>
    <g>
      <g class="cls-21">
        <text class="cls-22" transform="translate(532.96 104.37)"><tspan x="0" y="0">South Dakota</tspan></text>
      </g>
      <g class="cls-21">
        <text class="cls-22" transform="translate(556.3 111.16)"><tspan x="0" y="0">Montana</tspan></text>
      </g>
      <g class="cls-21">
        <text class="cls-22" transform="translate(553.5 119.02)"><tspan x="0" y="0">Delaware</tspan></text>
      </g>
      <g class="cls-21">
        <text class="cls-22" transform="translate(557.4 127.22)"><tspan class="cls-29" x="0" y="0">V</tspan><tspan x="6.12" y="0">ermont</tspan></text>
      </g>
      <g class="cls-21">
        <text class="cls-22" transform="translate(565.73 135.69)"><tspan x="0" y="0">Hawaii</tspan></text>
      </g>
      <g class="cls-21">
        <text class="cls-22" transform="translate(552.38 144.69)"><tspan x="0" y="0">Nebraska</tspan></text>
      </g>
      <g class="cls-21">
        <text class="cls-22" transform="translate(502.41 154.75)"><tspan x="0" y="0">District of Columbia</tspan></text>
      </g>
      <g class="cls-21">
        <text class="cls-22" transform="translate(543.51 166.14)"><tspan x="0" y="0">Mississippi</tspan></text>
      </g>
      <g class="cls-21">
        <text class="cls-22" transform="translate(569.07 178.21)"><tspan x="0" y="0">Maine</tspan></text>
      </g>
      <g class="cls-21">
        <text class="cls-22" transform="translate(575.18 191.85)"><tspan x="0" y="0">Iowa</tspan></text>
      </g>
      <g class="cls-21">
        <text class="cls-22" transform="translate(552.38 208.81)"><tspan x="0" y="0">Arkansas</tspan></text>
      </g>
      <g class="cls-21">
        <text class="cls-22" transform="translate(539.63 229.37)"><tspan x="0" y="0">Connecticut</tspan></text>
      </g>
      <g class="cls-21">
        <text class="cls-22" transform="translate(553.51 252.8)"><tspan x="0" y="0">Maryland</tspan></text>
      </g>
      <g class="cls-21">
        <text class="cls-22" transform="translate(547.49 278.6)"><tspan class="cls-30" x="0" y="0">W</tspan><tspan x="9.35" y="0">isconsin</tspan></text>
      </g>
      <g class="cls-21">
        <text class="cls-22" transform="translate(552.4 306.75)"><tspan x="0" y="0">Kentucky</tspan></text>
      </g>
      <g class="cls-21">
        <text class="cls-22" transform="translate(574.64 340.1)"><tspan x="0" y="0">Ohio</tspan></text>
      </g>
      <g class="cls-21">
        <text class="cls-22" transform="translate(533.49 382.8)"><tspan x="0" y="0">Pennsylvania</tspan></text>
      </g>
      <g class="cls-21">
        <text class="cls-22" transform="translate(562.41 432.06)"><tspan x="0" y="0">Indiana</tspan></text>
      </g>
      <g class="cls-21">
        <text class="cls-22" transform="translate(534.43 505.23)"><tspan class="cls-28" x="0" y="0">W</tspan><tspan x="9.26" y="0">est </tspan><tspan class="cls-28" x="26.49" y="0">V</tspan><tspan x="32.98" y="0">irginia</tspan></text>
      </g>
      <g class="cls-21">
        <text class="cls-22" transform="translate(552.76 609.77)"><tspan x="0" y="0">New</tspan><tspan class="cls-28" x="20.56" y="0"> </tspan><tspan class="cls-27" x="23.16" y="0">Y</tspan><tspan x="29.09" y="0">ork</tspan></text>
      </g>
      <g class="cls-21">
        <text class="cls-22" transform="translate(85.41 258.26)"><tspan x="0" y="0">Bottom 10 deaths</tspan></text>
      </g>
      <g class="cls-21">
        <text class="cls-22" transform="translate(85.41 495.76)"><tspan class="cls-27" x="0" y="0">T</tspan><tspan x="5.37" y="0">op 10 deaths</tspan></text>
      </g>
    </g>
  </g>
  <text class="cls-24" transform="translate(68.98 51.81)"><tspan x="0" y="0">Highest and lowest states with deaths per 100,000</tspan></text>
  <text class="cls-26" transform="translate(44.97 133.66)"><tspan x="0" y="0">Group of deaths/100,000</tspan></text>
  <text class="cls-26" transform="translate(581.22 86.39) scale(1.36 1)"><tspan x="0" y="0">states</tspan></text>
  <text class="cls-26" transform="translate(533.71 324.92)"><tspan x="0" y="0">Lorem ipsum</tspan></text>
  <text class="cls-25" transform="translate(21.07 659.8)"><tspan x="0" y="0">Source: State Unintentional Drug Overdose Reporting System (SURDORS)</tspan></text>
</svg>