<svg xmlns="http://www.w3.org/2000/svg" width="600" height="600"><rect width="600" height="600" x="0" y="0" fill="#ffffff" id="background"/><g transform="translate(40,20)" id="visualization"><g><rect x="525" y="0" height="0.8573664367280571" width="5" fill="black"><title>South Dakota: 4187515.61</title></rect><rect x="525" y="5.857366436728057" height="2.721101752547611" width="5" fill="black"><title>Montana: 13290298.73</title></rect><rect x="525" y="13.578468189275668" height="3.0138898967480543" width="5" fill="black"><title>Delaware: 14720323.13</title></rect><rect x="525" y="21.592358086023722" height="3.375244856873536" width="5" fill="black"><title>Vermont: 16485238.89</title></rect><rect x="525" y="29.96760294289726" height="3.576022469264899" width="5" fill="black"><title>Hawaii: 17465869.05</title></rect><rect x="525" y="38.54362541216216" height="4.411556846684903" width="5" fill="black"><title>Nebraska: 21546753.37</title></rect><rect x="525" y="47.95518225884706" height="5.714823140841034" width="5" fill="black"><title>District of Columbia: 27912115.62</title></rect><rect x="525" y="58.670005399688094" height="7.054902071685774" width="5" fill="black"><title>Mississippi: 34457276.71</title></rect><rect x="525" y="70.72490747137387" height="7.085195455470313" width="5" fill="black"><title>Maine: 34605234.47</title></rect><rect x="525" y="82.81010292684418" height="10.192431507517426" width="5" fill="black"><title>Iowa: 49781475.24</title></rect><rect x="525" y="98.0025344343616" height="13.736499746805464" width="5" fill="black"><title>Arkansas: 67091274.69</title></rect><rect x="525" y="116.73903418116707" height="17.380514501370968" width="5" fill="black"><title>Connecticut: 84889229</title></rect><rect x="525" y="139.11954868253804" height="19.48704088185059" width="5" fill="black"><title>Maryland: 95177842.74</title></rect><rect x="525" y="163.60658956438863" height="22.114037898435868" width="5" fill="black"><title>Wisconsin: 108008518.8</title></rect><rect x="525" y="190.7206274628245" height="24.185421468467382" width="5" fill="black"><title>Kentucky: 118125489.4</title></rect><rect x="525" y="219.90604893129188" height="32.513016648111716" width="5" fill="black"><title>Ohio: 158798804</title></rect><rect x="525" y="257.4190655794036" height="42.87861809838881" width="5" fill="black"><title>Pennsylvania: 209426069.1</title></rect><rect x="525" y="305.2976836777924" height="45.636957356922096" width="5" fill="black"><title>Indiana: 222898241.8</title></rect><rect x="525" y="355.9346410347145" height="90.7192145582548" width="5" fill="black"><title>West Virginia: 443087238.8</title></rect><rect x="525" y="451.6538555929693" height="108.34614440703069" width="5" fill="black"><title>New York: 529180000</title></rect><rect x="0" y="45.00000000000006" height="218.64702049362268" width="5" fill="black"><title>Bottom 10 deaths: 1067907224</title></rect><rect x="0" y="268.64702049362273" height="246.35297950637727" width="5" fill="black"><title>Top 10 deaths: 1203227585.15</title></rect></g><g fill="none" stroke-opacity="1"><g style="mix-blend-mode: multiply;"><path d="M5,469.64039272087257C265,469.64039272087257,265,401.29424831384193,525,401.29424831384193" stroke="#ffd393" stroke-width="90.71921455825482"/><title>Top 10 deaths → West Virginia: 443087238.8</title></g><g style="mix-blend-mode: multiply;"><path d="M5,277.89356681766486C265,277.89356681766486,265,50.81259382926758,525,50.81259382926758" stroke="#ffd393" stroke-width="5.71482314084103"/><title>Top 10 deaths → District of Columbia: 27912115.62</title></g><g style="mix-blend-mode: multiply;"><path d="M5,270.1539654419968C265,270.1539654419968,265,15.085413137649693,525,15.085413137649693" stroke="#ffd393" stroke-width="3.013889896748051"/><title>Top 10 deaths → Delaware: 14720323.13</title></g><g style="mix-blend-mode: multiply;"><path d="M5,336.79643996101095C265,336.79643996101095,265,202.8133381970582,525,202.8133381970582" stroke="#ffd393" stroke-width="24.185421468467386"/><title>Top 10 deaths → Kentucky: 118125489.4</title></g><g style="mix-blend-mode: multiply;"><path d="M5,284.2935761158205C265,284.2935761158205,265,74.26750519910902,525,74.26750519910902" stroke="#ffd393" stroke-width="7.085195455470304"/><title>Top 10 deaths → Maine: 34605234.47</title></g><g style="mix-blend-mode: multiply;"><path d="M5,365.14565901930047C265,365.14565901930047,265,236.16255725534774,525,236.16255725534774" stroke="#ffd393" stroke-width="32.51301664811172"/><title>Top 10 deaths → Ohio: 158798804</title></g><g style="mix-blend-mode: multiply;"><path d="M5,314.96020878585193C265,314.96020878585193,265,148.86306912346333,525,148.86306912346333" stroke="#ffd393" stroke-width="19.48704088185059"/><title>Top 10 deaths → Maryland: 95177842.74</title></g><g style="mix-blend-mode: multiply;"><path d="M5,296.5264310942411C265,296.5264310942411,265,125.42929143185256,525,125.42929143185256" stroke="#ffd393" stroke-width="17.380514501370982"/><title>Top 10 deaths → Connecticut: 84889229</title></g><g style="mix-blend-mode: multiply;"><path d="M5,273.34853281880754C265,273.34853281880754,265,23.27998051446049,525,23.27998051446049" stroke="#ffd393" stroke-width="3.3752448568735365"/><title>Top 10 deaths → Vermont: 16485238.89</title></g><g style="mix-blend-mode: multiply;"><path d="M5,402.8414763925507C265,402.8414763925507,265,278.85837462859797,525,278.85837462859797" stroke="#ffd393" stroke-width="42.8786180983888"/><title>Top 10 deaths → Pennsylvania: 209426069.1</title></g><g style="mix-blend-mode: multiply;"><path d="M5,60.09349854106837C265,60.09349854106837,265,62.19745643553098,525,62.19745643553098" stroke="#e25501" stroke-width="7.054902071685769"/><title>Bottom 10 deaths → Mississippi: 34457276.71</title></g><g style="mix-blend-mode: multiply;"><path d="M5,80.68163095783137C265,80.68163095783137,265,104.87078430776432,525,104.87078430776432" stroke="#e25501" stroke-width="13.736499746805439"/><title>Bottom 10 deaths → Arkansas: 67091274.69</title></g><g style="mix-blend-mode: multiply;"><path d="M5,47.217917313001934C265,47.217917313001934,265,7.217917313001873,525,7.217917313001873" stroke="#e25501" stroke-width="2.721101752547633"/><title>Bottom 10 deaths → Montana: 13290298.73</title></g><g style="mix-blend-mode: multiply;"><path d="M5,68.71716533066996C265,68.71716533066996,265,87.90631868060288,525,87.90631868060288" stroke="#e25501" stroke-width="10.192431507517409"/><title>Bottom 10 deaths → Iowa: 49781475.24</title></g><g style="mix-blend-mode: multiply;"><path d="M5,209.4739482901074C265,209.4739482901074,265,505.82692779648465,525,505.82692779648465" stroke="#e25501" stroke-width="108.34614440703068"/><title>Bottom 10 deaths → New York: 529180000</title></g><g style="mix-blend-mode: multiply;"><path d="M5,132.482397408131C265,132.482397408131,265,328.1161623562535,525,328.1161623562535" stroke="#e25501" stroke-width="45.63695735692211"/><title>Bottom 10 deaths → Indiana: 222898241.8</title></g><g style="mix-blend-mode: multiply;"><path d="M5,98.60689978045203C265,98.60689978045203,265,174.66360851360656,525,174.66360851360656" stroke="#e25501" stroke-width="22.114037898435857"/><title>Bottom 10 deaths → Wisconsin: 108008518.8</title></g><g style="mix-blend-mode: multiply;"><path d="M5,50.36647942390818C265,50.36647942390818,265,31.755614177529697,525,31.755614177529697" stroke="#e25501" stroke-width="3.576022469264877"/><title>Bottom 10 deaths → Hawaii: 17465869.05</title></g><g style="mix-blend-mode: multiply;"><path d="M5,54.360269081883054C265,54.360269081883054,265,40.74940383550459,525,40.74940383550459" stroke="#e25501" stroke-width="4.411556846684861"/><title>Bottom 10 deaths → Nebraska: 21546753.37</title></g><g style="mix-blend-mode: multiply;"><path d="M5,45.428683218364085C265,45.428683218364085,265,0.42868321836403034,525,0.42868321836403034" stroke="#e25501" stroke-width="1"/><title>Bottom 10 deaths → South Dakota: 4187515.61</title></g></g><g><text x="521" y="0.42868321836402856" text-anchor="end"><tspan alignment-baseline="middle" x="521" style="font-family: Arial, sans-serif; font-size: 10px; fill: black; font-weight: bold;">South Dakota</tspan></text><text x="521" y="7.217917313001863" text-anchor="end"><tspan alignment-baseline="middle" x="521" style="font-family: Arial, sans-serif; font-size: 10px; fill: black; font-weight: bold;">Montana</tspan></text><text x="521" y="15.085413137649695" text-anchor="end"><tspan alignment-baseline="middle" x="521" style="font-family: Arial, sans-serif; font-size: 10px; fill: black; font-weight: bold;">Delaware</tspan></text><text x="521" y="23.27998051446049" text-anchor="end"><tspan alignment-baseline="middle" x="521" style="font-family: Arial, sans-serif; font-size: 10px; fill: black; font-weight: bold;">Vermont</tspan></text><text x="521" y="31.755614177529708" text-anchor="end"><tspan alignment-baseline="middle" x="521" style="font-family: Arial, sans-serif; font-size: 10px; fill: black; font-weight: bold;">Hawaii</tspan></text><text x="521" y="40.74940383550461" text-anchor="end"><tspan alignment-baseline="middle" x="521" style="font-family: Arial, sans-serif; font-size: 10px; fill: black; font-weight: bold;">Nebraska</tspan></text><text x="521" y="50.81259382926758" text-anchor="end"><tspan alignment-baseline="middle" x="521" style="font-family: Arial, sans-serif; font-size: 10px; fill: black; font-weight: bold;">District of Columbia</tspan></text><text x="521" y="62.19745643553098" text-anchor="end"><tspan alignment-baseline="middle" x="521" style="font-family: Arial, sans-serif; font-size: 10px; fill: black; font-weight: bold;">Mississippi</tspan></text><text x="521" y="74.26750519910902" text-anchor="end"><tspan alignment-baseline="middle" x="521" style="font-family: Arial, sans-serif; font-size: 10px; fill: black; font-weight: bold;">Maine</tspan></text><text x="521" y="87.9063186806029" text-anchor="end"><tspan alignment-baseline="middle" x="521" style="font-family: Arial, sans-serif; font-size: 10px; fill: black; font-weight: bold;">Iowa</tspan></text><text x="521" y="104.87078430776434" text-anchor="end"><tspan alignment-baseline="middle" x="521" style="font-family: Arial, sans-serif; font-size: 10px; fill: black; font-weight: bold;">Arkansas</tspan></text><text x="521" y="125.42929143185256" text-anchor="end"><tspan alignment-baseline="middle" x="521" style="font-family: Arial, sans-serif; font-size: 10px; fill: black; font-weight: bold;">Connecticut</tspan></text><text x="521" y="148.86306912346333" text-anchor="end"><tspan alignment-baseline="middle" x="521" style="font-family: Arial, sans-serif; font-size: 10px; fill: black; font-weight: bold;">Maryland</tspan></text><text x="521" y="174.66360851360656" text-anchor="end"><tspan alignment-baseline="middle" x="521" style="font-family: Arial, sans-serif; font-size: 10px; fill: black; font-weight: bold;">Wisconsin</tspan></text><text x="521" y="202.8133381970582" text-anchor="end"><tspan alignment-baseline="middle" x="521" style="font-family: Arial, sans-serif; font-size: 10px; fill: black; font-weight: bold;">Kentucky</tspan></text><text x="521" y="236.16255725534774" text-anchor="end"><tspan alignment-baseline="middle" x="521" style="font-family: Arial, sans-serif; font-size: 10px; fill: black; font-weight: bold;">Ohio</tspan></text><text x="521" y="278.85837462859797" text-anchor="end"><tspan alignment-baseline="middle" x="521" style="font-family: Arial, sans-serif; font-size: 10px; fill: black; font-weight: bold;">Pennsylvania</tspan></text><text x="521" y="328.1161623562534" text-anchor="end"><tspan alignment-baseline="middle" x="521" style="font-family: Arial, sans-serif; font-size: 10px; fill: black; font-weight: bold;">Indiana</tspan></text><text x="521" y="401.2942483138419" text-anchor="end"><tspan alignment-baseline="middle" x="521" style="font-family: Arial, sans-serif; font-size: 10px; fill: black; font-weight: bold;">West Virginia</tspan></text><text x="521" y="505.82692779648465" text-anchor="end"><tspan alignment-baseline="middle" x="521" style="font-family: Arial, sans-serif; font-size: 10px; fill: black; font-weight: bold;">New York</tspan></text><text x="9" y="154.3235102468114" text-anchor="start"><tspan alignment-baseline="middle" x="9" style="font-family: Arial, sans-serif; font-size: 10px; fill: black; font-weight: bold;">Bottom 10 deaths</tspan></text><text x="9" y="391.82351024681134" text-anchor="start"><tspan alignment-baseline="middle" x="9" style="font-family: Arial, sans-serif; font-size: 10px; fill: black; font-weight: bold;">Top 10 deaths</tspan></text></g><g><text x="527.5" y="-4" text-anchor="middle" style="font-family: Arial, sans-serif; font-size: 12px; fill: rgb(123, 123, 123); font-weight: bold;">state</text><text x="2.5" y="41.00000000000006" text-anchor="middle" style="font-family: Arial, sans-serif; font-size: 12px; fill: rgb(123, 123, 123); font-weight: bold;">group/100000</text></g></g></svg>